<svg viewBox="0 0 3040 1760"  version="1.1" xmlns="http://www.w3.org/2000/svg"><rect width="100%" height="100%" fill="white"/>
<g id="qubit_lines">
<path id="qubit_line:0" d="M64,64 L3008,64 " stroke="black"/>
<text dominant-baseline="central" text-anchor="end" font-family="monospace" font-size="12" x="64" y="64">q0</text>
<path id="qubit_line:1" d="M64,128 L3008,128 " stroke="black"/>
<text dominant-baseline="central" text-anchor="end" font-family="monospace" font-size="12" x="64" y="128">q1</text>
<path id="qubit_line:2" d="M64,192 L3008,192 " stroke="black"/>
<text dominant-baseline="central" text-anchor="end" font-family="monospace" font-size="12" x="64" y="192">q2</text>
<path id="qubit_line:3" d="M64,256 L3008,256 " stroke="black"/>
<text dominant-baseline="central" text-anchor="end" font-family="monospace" font-size="12" x="64" y="256">q3</text>
<path id="qubit_line:4" d="M64,320 L3008,320 " stroke="black"/>
<text dominant-baseline="central" text-anchor="end" font-family="monospace" font-size="12" x="64" y="320">q4</text>
<path id="qubit_line:5" d="M64,384 L3008,384 " stroke="black"/>
<text dominant-baseline="central" text-anchor="end" font-family="monospace" font-size="12" x="64" y="384">q5</text>
<path id="qubit_line:6" d="M64,448 L3008,448 " stroke="black"/>
<text dominant-baseline="central" text-anchor="end" font-family="monospace" font-size="12" x="64" y="448">q6</text>
<path id="qubit_line:7" d="M64,512 L3008,512 " stroke="black"/>
<text dominant-baseline="central" text-anchor="end" font-family="monospace" font-size="12" x="64" y="512">q7</text>
<path id="qubit_line:8" d="M64,576 L3008,576 " stroke="black"/>
<text dominant-baseline="central" text-anchor="end" font-family="monospace" font-size="12" x="64" y="576">q8</text>
<path id="qubit_line:9" d="M64,640 L3008,640 " stroke="black"/>
<text dominant-baseline="central" text-anchor="end" font-family="monospace" font-size="12" x="64" y="640">q9</text>
<path id="qubit_line:10" d="M64,704 L3008,704 " stroke="black"/>
<text dominant-baseline="central" text-anchor="end" font-family="monospace" font-size="12" x="64" y="704">q10</text>
<path id="qubit_line:11" d="M64,768 L3008,768 " stroke="black"/>
<text dominant-baseline="central" text-anchor="end" font-family="monospace" font-size="12" x="64" y="768">q11</text>
<path id="qubit_line:12" d="M64,832 L3008,832 " stroke="black"/>
<text dominant-baseline="central" text-anchor="end" font-family="monospace" font-size="12" x="64" y="832">q12</text>
<path id="qubit_line:13" d="M64,896 L3008,896 " stroke="black"/>
<text dominant-baseline="central" text-anchor="end" font-family="monospace" font-size="12" x="64" y="896">q13</text>
<path id="qubit_line:14" d="M64,960 L3008,960 " stroke="black"/>
<text dominant-baseline="central" text-anchor="end" font-family="monospace" font-size="12" x="64" y="960">q14</text>
<path id="qubit_line:15" d="M64,1024 L3008,1024 " stroke="black"/>
<text dominant-baseline="central" text-anchor="end" font-family="monospace" font-size="12" x="64" y="1024">q15</text>
<path id="qubit_line:16" d="M64,1088 L3008,1088 " stroke="black"/>
<text dominant-baseline="central" text-anchor="end" font-family="monospace" font-size="12" x="64" y="1088">q16</text>
<path id="qubit_line:17" d="M64,1152 L3008,1152 " stroke="black"/>
<text dominant-baseline="central" text-anchor="end" font-family="monospace" font-size="12" x="64" y="1152">q17</text>
<path id="qubit_line:18" d="M64,1216 L3008,1216 " stroke="black"/>
<text dominant-baseline="central" text-anchor="end" font-family="monospace" font-size="12" x="64" y="1216">q18</text>
<path id="qubit_line:19" d="M64,1280 L3008,1280 " stroke="black"/>
<text dominant-baseline="central" text-anchor="end" font-family="monospace" font-size="12" x="64" y="1280">q19</text>
<path id="qubit_line:20" d="M64,1344 L3008,1344 " stroke="black"/>
<text dominant-baseline="central" text-anchor="end" font-family="monospace" font-size="12" x="64" y="1344">q20</text>
<path id="qubit_line:21" d="M64,1408 L3008,1408 " stroke="black"/>
<text dominant-baseline="central" text-anchor="end" font-family="monospace" font-size="12" x="64" y="1408">q21</text>
<path id="qubit_line:22" d="M64,1472 L3008,1472 " stroke="black"/>
<text dominant-baseline="central" text-anchor="end" font-family="monospace" font-size="12" x="64" y="1472">q22</text>
<path id="qubit_line:23" d="M64,1536 L3008,1536 " stroke="black"/>
<text dominant-baseline="central" text-anchor="end" font-family="monospace" font-size="12" x="64" y="1536">q23</text>
<path id="qubit_line:24" d="M64,1600 L3008,1600 " stroke="black"/>
<text dominant-baseline="central" text-anchor="end" font-family="monospace" font-size="12" x="64" y="1600">q24</text>
<path id="qubit_line:25" d="M64,1664 L3008,1664 " stroke="black"/>
<text dominant-baseline="central" text-anchor="end" font-family="monospace" font-size="12" x="64" y="1664">q25</text>
</g>
<rect x="144" y="176" width="32" height="32" stroke="black" fill="white"/>
<text dominant-baseline="central" text-anchor="middle" font-family="monospace" font-size="30" x="160" y="192">H</text>
<rect x="144" y="752" width="32" height="32" stroke="black" fill="white"/>
<text dominant-baseline="central" text-anchor="middle" font-family="monospace" font-size="30" x="160" y="768">H</text>
<rect x="144" y="1072" width="32" height="32" stroke="black" fill="white"/>
<text dominant-baseline="central" text-anchor="middle" font-family="monospace" font-size="30" x="160" y="1088">H</text>
<rect x="144" y="1648" width="32" height="32" stroke="black" fill="white"/>
<text dominant-baseline="central" text-anchor="middle" font-family="monospace" font-size="30" x="160" y="1664">H</text>
<path d="M224,192 L224,256 " stroke="black"/>
<circle cx="224" cy="192" r="12" stroke="none" fill="black"/>
<circle cx="224" cy="256" r="12" stroke="black" fill="white"/>
<path d="M212,256 L236,256 M224,244 L224,268 " stroke="black"/>
<path d="M224,1088 L224,1152 " stroke="black"/>
<circle cx="224" cy="1088" r="12" stroke="none" fill="black"/>
<circle cx="224" cy="1152" r="12" stroke="black" fill="white"/>
<path d="M212,1152 L236,1152 M224,1140 L224,1164 " stroke="black"/>
<path d="M224,768 L224,832 " stroke="black"/>
<circle cx="224" cy="768" r="12" stroke="none" fill="black"/>
<circle cx="224" cy="832" r="12" stroke="black" fill="white"/>
<path d="M212,832 L236,832 M224,820 L224,844 " stroke="black"/>
<path d="M224,960 L224,1024 " stroke="black"/>
<circle cx="224" cy="1024" r="12" stroke="none" fill="black"/>
<circle cx="224" cy="960" r="12" stroke="black" fill="white"/>
<path d="M212,960 L236,960 M224,948 L224,972 " stroke="black"/>
<path d="M224,640 L224,704 " stroke="black"/>
<circle cx="224" cy="704" r="12" stroke="none" fill="black"/>
<circle cx="224" cy="640" r="12" stroke="black" fill="white"/>
<path d="M212,640 L236,640 M224,628 L224,652 " stroke="black"/>
<path d="M224,1216 L224,1280 " stroke="black"/>
<circle cx="224" cy="1280" r="12" stroke="none" fill="black"/>
<circle cx="224" cy="1216" r="12" stroke="black" fill="white"/>
<path d="M212,1216 L236,1216 M224,1204 L224,1228 " stroke="black"/>
<path d="M288,128 L288,192 " stroke="black"/>
<circle cx="288" cy="192" r="12" stroke="none" fill="black"/>
<circle cx="288" cy="128" r="12" stroke="black" fill="white"/>
<path d="M276,128 L300,128 M288,116 L288,140 " stroke="black"/>
<path d="M288,1024 L288,1088 " stroke="black"/>
<circle cx="288" cy="1088" r="12" stroke="none" fill="black"/>
<circle cx="288" cy="1024" r="12" stroke="black" fill="white"/>
<path d="M276,1024 L300,1024 M288,1012 L288,1036 " stroke="black"/>
<path d="M288,704 L288,768 " stroke="black"/>
<circle cx="288" cy="768" r="12" stroke="none" fill="black"/>
<circle cx="288" cy="704" r="12" stroke="black" fill="white"/>
<path d="M276,704 L300,704 M288,692 L288,716 " stroke="black"/>
<path d="M352,576 L352,960 " stroke="black"/>
<circle cx="352" cy="576" r="12" stroke="none" fill="black"/>
<circle cx="352" cy="960" r="12" stroke="black" fill="white"/>
<path d="M340,960 L364,960 M352,948 L352,972 " stroke="black"/>
<path d="M416,256 L416,640 " stroke="black"/>
<circle cx="416" cy="256" r="12" stroke="none" fill="black"/>
<circle cx="416" cy="640" r="12" stroke="black" fill="white"/>
<path d="M404,640 L428,640 M416,628 L416,652 " stroke="black"/>
<path d="M416,832 L416,1216 " stroke="black"/>
<circle cx="416" cy="832" r="12" stroke="none" fill="black"/>
<circle cx="416" cy="1216" r="12" stroke="black" fill="white"/>
<path d="M404,1216 L428,1216 M416,1204 L416,1228 " stroke="black"/>
<path d="M260,40 L260,32 L444,32 L444,40 " stroke="black" fill="none"/>
<path d="M260,1720 L260,1728 L444,1728 L444,1720 " stroke="black" fill="none"/>
<path d="M480,704 L480,1088 " stroke="black"/>
<circle cx="480" cy="1088" r="12" stroke="none" fill="black"/>
<circle cx="480" cy="704" r="12" stroke="black" fill="white"/>
<path d="M468,704 L492,704 M480,692 L480,716 " stroke="black"/>
<path d="M544,384 L544,768 " stroke="black"/>
<circle cx="544" cy="768" r="12" stroke="none" fill="black"/>
<circle cx="544" cy="384" r="12" stroke="black" fill="white"/>
<path d="M532,384 L556,384 M544,372 L544,396 " stroke="black"/>
<path d="M544,1280 L544,1664 " stroke="black"/>
<circle cx="544" cy="1664" r="12" stroke="none" fill="black"/>
<circle cx="544" cy="1280" r="12" stroke="black" fill="white"/>
<path d="M532,1280 L556,1280 M544,1268 L544,1292 " stroke="black"/>
<path d="M608,576 L608,640 " stroke="black"/>
<circle cx="608" cy="576" r="12" stroke="none" fill="black"/>
<circle cx="608" cy="640" r="12" stroke="black" fill="white"/>
<path d="M596,640 L620,640 M608,628 L608,652 " stroke="black"/>
<path d="M608,1152 L608,1216 " stroke="black"/>
<circle cx="608" cy="1152" r="12" stroke="none" fill="black"/>
<circle cx="608" cy="1216" r="12" stroke="black" fill="white"/>
<path d="M596,1216 L620,1216 M608,1204 L608,1228 " stroke="black"/>
<path d="M608,832 L608,896 " stroke="black"/>
<circle cx="608" cy="832" r="12" stroke="none" fill="black"/>
<circle cx="608" cy="896" r="12" stroke="black" fill="white"/>
<path d="M596,896 L620,896 M608,884 L608,908 " stroke="black"/>
<path d="M452,40 L452,32 L636,32 L636,40 " stroke="black" fill="none"/>
<path d="M452,1720 L452,1728 L636,1728 L636,1720 " stroke="black" fill="none"/>
<path d="M672,576 L672,1088 " stroke="black"/>
<circle cx="672" cy="1088" r="12" stroke="none" fill="black"/>
<circle cx="672" cy="576" r="12" stroke="black" fill="white"/>
<path d="M660,576 L684,576 M672,564 L672,588 " stroke="black"/>
<path d="M736,256 L736,768 " stroke="black"/>
<circle cx="736" cy="768" r="12" stroke="none" fill="black"/>
<circle cx="736" cy="256" r="12" stroke="black" fill="white"/>
<path d="M724,256 L748,256 M736,244 L736,268 " stroke="black"/>
<path d="M736,1152 L736,1664 " stroke="black"/>
<circle cx="736" cy="1664" r="12" stroke="none" fill="black"/>
<circle cx="736" cy="1152" r="12" stroke="black" fill="white"/>
<path d="M724,1152 L748,1152 M736,1140 L736,1164 " stroke="black"/>
<path d="M800,128 L800,640 " stroke="black"/>
<circle cx="800" cy="128" r="12" stroke="none" fill="black"/>
<circle cx="800" cy="640" r="12" stroke="black" fill="white"/>
<path d="M788,640 L812,640 M800,628 L800,652 " stroke="black"/>
<path d="M800,704 L800,1216 " stroke="black"/>
<circle cx="800" cy="704" r="12" stroke="none" fill="black"/>
<circle cx="800" cy="1216" r="12" stroke="black" fill="white"/>
<path d="M788,1216 L812,1216 M800,1204 L800,1228 " stroke="black"/>
<path d="M864,384 L864,896 " stroke="black"/>
<circle cx="864" cy="384" r="12" stroke="none" fill="black"/>
<circle cx="864" cy="896" r="12" stroke="black" fill="white"/>
<path d="M852,896 L876,896 M864,884 L864,908 " stroke="black"/>
<path d="M644,40 L644,32 L892,32 L892,40 " stroke="black" fill="none"/>
<path d="M644,1720 L644,1728 L892,1728 L892,1720 " stroke="black" fill="none"/>
<rect x="912" y="176" width="32" height="32" stroke="black" fill="white"/>
<text dominant-baseline="central" text-anchor="middle" font-family="monospace" font-size="30" x="928" y="192">H</text>
<rect x="912" y="752" width="32" height="32" stroke="black" fill="white"/>
<text dominant-baseline="central" text-anchor="middle" font-family="monospace" font-size="30" x="928" y="768">H</text>
<rect x="912" y="1072" width="32" height="32" stroke="black" fill="white"/>
<text dominant-baseline="central" text-anchor="middle" font-family="monospace" font-size="30" x="928" y="1088">H</text>
<rect x="912" y="1648" width="32" height="32" stroke="black" fill="white"/>
<text dominant-baseline="central" text-anchor="middle" font-family="monospace" font-size="30" x="928" y="1664">H</text>
<rect x="976" y="176" width="32" height="32" stroke="black" fill="black"/>
<text dominant-baseline="central" text-anchor="middle" font-family="monospace" font-size="24" x="992" y="192" fill="white">MR</text>
<text text-anchor="middle" font-family="monospace" font-size="8" x="992" y="172">rec[0]</text>
<rect x="976" y="624" width="32" height="32" stroke="black" fill="black"/>
<text dominant-baseline="central" text-anchor="middle" font-family="monospace" font-size="24" x="992" y="640" fill="white">MR</text>
<text text-anchor="middle" font-family="monospace" font-size="8" x="992" y="620">rec[1]</text>
<rect x="976" y="752" width="32" height="32" stroke="black" fill="black"/>
<text dominant-baseline="central" text-anchor="middle" font-family="monospace" font-size="24" x="992" y="768" fill="white">MR</text>
<text text-anchor="middle" font-family="monospace" font-size="8" x="992" y="748">rec[2]</text>
<rect x="976" y="880" width="32" height="32" stroke="black" fill="black"/>
<text dominant-baseline="central" text-anchor="middle" font-family="monospace" font-size="24" x="992" y="896" fill="white">MR</text>
<text text-anchor="middle" font-family="monospace" font-size="8" x="992" y="876">rec[3]</text>
<rect x="976" y="944" width="32" height="32" stroke="black" fill="black"/>
<text dominant-baseline="central" text-anchor="middle" font-family="monospace" font-size="24" x="992" y="960" fill="white">MR</text>
<text text-anchor="middle" font-family="monospace" font-size="8" x="992" y="940">rec[4]</text>
<rect x="976" y="1072" width="32" height="32" stroke="black" fill="black"/>
<text dominant-baseline="central" text-anchor="middle" font-family="monospace" font-size="24" x="992" y="1088" fill="white">MR</text>
<text text-anchor="middle" font-family="monospace" font-size="8" x="992" y="1068">rec[5]</text>
<rect x="976" y="1200" width="32" height="32" stroke="black" fill="black"/>
<text dominant-baseline="central" text-anchor="middle" font-family="monospace" font-size="24" x="992" y="1216" fill="white">MR</text>
<text text-anchor="middle" font-family="monospace" font-size="8" x="992" y="1196">rec[6]</text>
<rect x="976" y="1648" width="32" height="32" stroke="black" fill="black"/>
<text dominant-baseline="central" text-anchor="middle" font-family="monospace" font-size="24" x="992" y="1664" fill="white">MR</text>
<text text-anchor="middle" font-family="monospace" font-size="8" x="992" y="1644">rec[7]</text>
<rect x="976" y="48" width="224" height="32" stroke="black" fill="lightgray"/>
<text dominant-baseline="central" text-anchor="middle" font-family="monospace" font-size="16" x="1088" y="64">DETECTOR</text>
<text dominant-baseline="hanging" text-anchor="middle" font-family="monospace" font-size="8" x="1088" y="84">coords=(2,0,1)</text>
<text text-anchor="middle" font-family="monospace" font-size="8" x="1088" y="44">D0 = rec[0]*rec[18446744073709551608]</text>
<rect x="1232" y="48" width="224" height="32" stroke="black" fill="lightgray"/>
<text dominant-baseline="central" text-anchor="middle" font-family="monospace" font-size="16" x="1344" y="64">DETECTOR</text>
<text dominant-baseline="hanging" text-anchor="middle" font-family="monospace" font-size="8" x="1344" y="84">coords=(2,2,1)</text>
<text text-anchor="middle" font-family="monospace" font-size="8" x="1344" y="44">D1 = rec[1]*rec[18446744073709551609]</text>
<rect x="1488" y="48" width="224" height="32" stroke="black" fill="lightgray"/>
<text dominant-baseline="central" text-anchor="middle" font-family="monospace" font-size="16" x="1600" y="64">DETECTOR</text>
<text dominant-baseline="hanging" text-anchor="middle" font-family="monospace" font-size="8" x="1600" y="84">coords=(4,2,1)</text>
<text text-anchor="middle" font-family="monospace" font-size="8" x="1600" y="44">D2 = rec[2]*rec[18446744073709551610]</text>
<rect x="1744" y="48" width="224" height="32" stroke="black" fill="lightgray"/>
<text dominant-baseline="central" text-anchor="middle" font-family="monospace" font-size="16" x="1856" y="64">DETECTOR</text>
<text dominant-baseline="hanging" text-anchor="middle" font-family="monospace" font-size="8" x="1856" y="84">coords=(6,2,1)</text>
<text text-anchor="middle" font-family="monospace" font-size="8" x="1856" y="44">D3 = rec[3]*rec[18446744073709551611]</text>
<rect x="2000" y="48" width="224" height="32" stroke="black" fill="lightgray"/>
<text dominant-baseline="central" text-anchor="middle" font-family="monospace" font-size="16" x="2112" y="64">DETECTOR</text>
<text dominant-baseline="hanging" text-anchor="middle" font-family="monospace" font-size="8" x="2112" y="84">coords=(0,4,1)</text>
<text text-anchor="middle" font-family="monospace" font-size="8" x="2112" y="44">D4 = rec[4]*rec[18446744073709551612]</text>
<rect x="2256" y="48" width="224" height="32" stroke="black" fill="lightgray"/>
<text dominant-baseline="central" text-anchor="middle" font-family="monospace" font-size="16" x="2368" y="64">DETECTOR</text>
<text dominant-baseline="hanging" text-anchor="middle" font-family="monospace" font-size="8" x="2368" y="84">coords=(2,4,1)</text>
<text text-anchor="middle" font-family="monospace" font-size="8" x="2368" y="44">D5 = rec[5]*rec[18446744073709551613]</text>
<rect x="2512" y="48" width="224" height="32" stroke="black" fill="lightgray"/>
<text dominant-baseline="central" text-anchor="middle" font-family="monospace" font-size="16" x="2624" y="64">DETECTOR</text>
<text dominant-baseline="hanging" text-anchor="middle" font-family="monospace" font-size="8" x="2624" y="84">coords=(4,4,1)</text>
<text text-anchor="middle" font-family="monospace" font-size="8" x="2624" y="44">D6 = rec[6]*rec[18446744073709551614]</text>
<rect x="2768" y="48" width="224" height="32" stroke="black" fill="lightgray"/>
<text dominant-baseline="central" text-anchor="middle" font-family="monospace" font-size="16" x="2880" y="64">DETECTOR</text>
<text dominant-baseline="hanging" text-anchor="middle" font-family="monospace" font-size="8" x="2880" y="84">coords=(4,6,1)</text>
<text text-anchor="middle" font-family="monospace" font-size="8" x="2880" y="44">D7 = rec[7]*rec[18446744073709551615]</text>
<path d="M964,40 L964,32 L3004,32 L3004,40 " stroke="black" fill="none"/>
<path d="M964,1720 L964,1728 L3004,1728 L3004,1720 " stroke="black" fill="none"/>
</svg>